<svg width="106" height="105" viewBox="0 0 106 105" fill="none" xmlns="http://www.w3.org/2000/svg">
<g filter="url(#filter0_d)">
<path d="M19.5 39.5C19.5 20.9985 34.4985 6 53 6C71.5015 6 86.5 20.9985 86.5 39.5C86.5 58.0015 71.5015 73 53 73C34.4985 73 19.5 58.0015 19.5 39.5Z" fill="#E74040"/>
<path d="M46.5 48C45.9477 48 45.5 47.5523 45.5 47V32C45.5 31.4478 45.9477 31 46.5 31H52.88C53.2602 30.9974 53.6089 31.2105 53.78 31.55L54.5 33H59.5C60.0523 33 60.5 33.4478 60.5 34V42C60.5 42.5523 60.0523 43 59.5 43H54.11C53.7334 42.9989 53.3895 42.7863 53.22 42.45L52.5 41H47.5V47C47.5 47.5523 47.0523 48 46.5 48ZM47.5 33V39H53.5L54.5 41H58.5V35H53.5L52.5 33H47.5Z" fill="white"/>
</g>
<defs>
<filter id="filter0_d" x="0.5" y="0" width="105" height="105" filterUnits="userSpaceOnUse" color-interpolation-filters="sRGB">
<feFlood flood-opacity="0" result="BackgroundImageFix"/>
<feColorMatrix in="SourceAlpha" type="matrix" values="0 0 0 0 0 0 0 0 0 0 0 0 0 0 0 0 0 0 127 0" result="hardAlpha"/>
<feOffset dy="13"/>
<feGaussianBlur stdDeviation="9.5"/>
<feColorMatrix type="matrix" values="0 0 0 0 0 0 0 0 0 0 0 0 0 0 0 0 0 0 0.07 0"/>
<feBlend mode="normal" in2="BackgroundImageFix" result="effect1_dropShadow"/>
<feBlend mode="normal" in="SourceGraphic" in2="effect1_dropShadow" result="shape"/>
</filter>
</defs>
</svg>
