<svg width="106" height="105" viewBox="0 0 106 105" fill="none" xmlns="http://www.w3.org/2000/svg">
<g filter="url(#filter0_d)">
<path d="M19.5 39.5C19.5 20.9985 34.4985 6 53 6C71.5015 6 86.5 20.9985 86.5 39.5C86.5 58.0015 71.5015 73 53 73C34.4985 73 19.5 58.0015 19.5 39.5Z" fill="#E74040"/>
<path d="M53 48.6352L44 41.6352L45.62 40.3752L52.99 46.1052L60.37 40.3652L62 41.6352L53 48.6352ZM53 44.3652L45.63 38.6352L44 37.3652L53 30.3652L62 37.3652L60.36 38.6352L53 44.3652Z" fill="white"/>
</g>
<defs>
<filter id="filter0_d" x="0.5" y="0" width="105" height="105" filterUnits="userSpaceOnUse" color-interpolation-filters="sRGB">
<feFlood flood-opacity="0" result="BackgroundImageFix"/>
<feColorMatrix in="SourceAlpha" type="matrix" values="0 0 0 0 0 0 0 0 0 0 0 0 0 0 0 0 0 0 127 0" result="hardAlpha"/>
<feOffset dy="13"/>
<feGaussianBlur stdDeviation="9.5"/>
<feColorMatrix type="matrix" values="0 0 0 0 0 0 0 0 0 0 0 0 0 0 0 0 0 0 0.07 0"/>
<feBlend mode="normal" in2="BackgroundImageFix" result="effect1_dropShadow"/>
<feBlend mode="normal" in="SourceGraphic" in2="effect1_dropShadow" result="shape"/>
</filter>
</defs>
</svg>
